<?xml version="1.0" standalone="no"?>
<!DOCTYPE svg PUBLIC "-//W3C//DTD SVG 20010904//EN"
 "http://www.w3.org/TR/2001/REC-SVG-20010904/DTD/svg10.dtd">
<svg version="1.0" xmlns="http://www.w3.org/2000/svg"
 width="500.000000pt" height="500.000000pt" viewBox="0 0 500.000000 500.000000"
 preserveAspectRatio="xMidYMid meet">
<metadata>
Created by potrace 1.14, written by Peter Selinger 2001-2017
</metadata>
<g transform="translate(0.000000,500.000000) scale(0.100000,-0.100000)"
fill="#000000" stroke="none">
<path d="M1991 4844 c0 -11 3 -14 6 -6 3 7 2 16 -1 19 -3 4 -6 -2 -5 -13z"/>
<path d="M2191 4294 c0 -11 3 -14 6 -6 3 7 2 16 -1 19 -3 4 -6 -2 -5 -13z"/>
<path d="M3290 4285 c0 -15 18 -40 24 -34 3 3 -1 14 -9 25 -8 10 -14 15 -15 9z"/>
<path d="M3322 4120 c0 -14 2 -19 5 -12 2 6 2 18 0 25 -3 6 -5 1 -5 -13z"/>
<path d="M3042 4090 c0 -19 2 -27 5 -17 2 9 2 25 0 35 -3 9 -5 1 -5 -18z"/>
<path d="M3022 3970 c0 -14 2 -19 5 -12 2 6 2 18 0 25 -3 6 -5 1 -5 -13z"/>
<path d="M2208 3943 c6 -2 18 -2 25 0 6 3 1 5 -13 5 -14 0 -19 -2 -12 -5z"/>
<path d="M1386 3913 c-6 -14 -5 -15 5 -6 7 7 10 15 7 18 -3 3 -9 -2 -12 -12z"/>
<path d="M3322 3835 c0 -16 2 -22 5 -12 2 9 2 23 0 30 -3 6 -5 -1 -5 -18z"/>
<path d="M4382 3825 c0 -16 2 -22 5 -12 2 9 2 23 0 30 -3 6 -5 -1 -5 -18z"/>
<path d="M3960 3819 c0 -5 5 -7 10 -4 6 3 10 8 10 11 0 2 -4 4 -10 4 -5 0 -10
-5 -10 -11z"/>
<path d="M1505 3749 c-9 -17 -15 -35 -13 -41 2 -6 11 8 20 31 19 48 15 54 -7
10z"/>
<path d="M3312 3750 c0 -14 2 -19 5 -12 2 6 2 18 0 25 -3 6 -5 1 -5 -13z"/>
<path d="M3906 3738 c10 -14 21 -24 23 -22 3 3 -6 15 -18 27 l-24 22 19 -27z"/>
<path d="M1886 3685 c-9 -26 -7 -32 5 -12 6 10 9 21 6 23 -2 3 -7 -2 -11 -11z"/>
<path d="M3935 3660 c10 -11 20 -20 23 -20 3 0 -3 9 -13 20 -10 11 -20 20 -23
20 -3 0 3 -9 13 -20z"/>
<path d="M4402 3645 c0 -16 2 -22 5 -12 2 9 2 23 0 30 -3 6 -5 -1 -5 -18z"/>
<path d="M2992 3592 c-32 -79 -35 -90 -20 -64 8 12 16 20 19 17 3 -3 11 18 17
47 7 28 11 52 10 54 -2 1 -13 -23 -26 -54z"/>
<path d="M4433 3500 c0 -47 2 -66 4 -42 2 23 2 61 0 85 -2 23 -4 4 -4 -43z"/>
<path d="M3242 3525 c0 -16 2 -22 5 -12 2 9 2 23 0 30 -3 6 -5 -1 -5 -18z"/>
<path d="M3962 3510 c0 -14 2 -19 5 -12 2 6 2 18 0 25 -3 6 -5 1 -5 -13z"/>
<path d="M3971 3475 c0 -5 8 -44 19 -85 12 -48 17 -59 13 -30 -5 44 -30 134
-32 115z"/>
<path d="M1502 3440 c0 -14 2 -19 5 -12 2 6 2 18 0 25 -3 6 -5 1 -5 -13z"/>
<path d="M3148 3435 c-3 -11 -9 -29 -13 -40 -3 -11 1 -7 10 8 9 16 15 33 12
40 -2 6 -6 3 -9 -8z"/>
<path d="M3280 3411 c0 -5 5 -13 10 -16 6 -3 10 -2 10 4 0 5 -4 13 -10 16 -5
3 -10 2 -10 -4z"/>
<path d="M1300 3365 c0 -8 2 -15 4 -15 2 0 6 7 10 15 3 8 1 15 -4 15 -6 0 -10
-7 -10 -15z"/>
<path d="M2805 3362 c-25 -21 -21 -54 8 -78 22 -19 22 -19 5 2 -22 26 -23 52
-1 76 20 23 14 23 -12 0z"/>
<path d="M4442 3335 c0 -16 2 -22 5 -12 2 9 2 23 0 30 -3 6 -5 -1 -5 -18z"/>
<path d="M1814 3305 c-10 -8 -14 -14 -9 -15 15 0 40 18 34 24 -3 3 -14 -1 -25
-9z"/>
<path d="M4012 3290 c0 -14 2 -19 5 -12 2 6 2 18 0 25 -3 6 -5 1 -5 -13z"/>
<path d="M2378 3265 c2 -14 9 -28 15 -32 7 -4 8 0 4 11 -4 10 -7 24 -7 32 0 8
-4 14 -9 14 -4 0 -6 -11 -3 -25z"/>
<path d="M4452 3270 c0 -14 2 -19 5 -12 2 6 2 18 0 25 -3 6 -5 1 -5 -13z"/>
<path d="M2850 3266 c0 -2 8 -10 18 -17 15 -13 16 -12 3 4 -13 16 -21 21 -21
13z"/>
<path d="M1502 3230 c0 -14 2 -19 5 -12 2 6 2 18 0 25 -3 6 -5 1 -5 -13z"/>
<path d="M1996 3233 c-4 -5 4 -156 9 -161 3 -3 33 -5 66 -4 57 1 65 3 97 36
20 21 44 36 58 36 17 0 31 12 50 41 14 22 23 44 19 47 -5 5 -294 10 -299 5z"/>
<path d="M3029 3219 c-20 -10 -39 -21 -42 -26 -12 -19 46 -38 113 -38 77 0 98
12 93 52 -4 27 -7 28 -66 28 -35 0 -77 -7 -98 -16z"/>
<path d="M1478 3203 c-6 -23 -2 -129 7 -180 5 -26 2 -33 -10 -33 -8 0 -15 7
-15 15 0 27 -23 65 -40 65 -10 0 -31 14 -48 31 -23 23 -29 26 -26 13 3 -11
-11 -64 -31 -119 -45 -124 -52 -147 -59 -212 l-5 -53 24 16 c14 9 25 22 25 29
0 6 10 17 23 23 53 28 193 116 218 139 15 13 15 18 -3 66 -11 29 -28 90 -37
137 -12 57 -19 78 -23 63z"/>
<path d="M4462 3190 c0 -19 2 -27 5 -17 2 9 2 25 0 35 -3 9 -5 1 -5 -18z"/>
<path d="M860 3205 c0 -5 5 -17 10 -25 5 -8 10 -10 10 -5 0 6 -5 17 -10 25 -5
8 -10 11 -10 5z"/>
<path d="M1350 3195 c-7 -9 -11 -17 -9 -20 3 -2 10 5 17 15 14 24 10 26 -8 5z"/>
<path d="M3405 3192 c-5 -14 -3 -15 70 -32 28 -6 97 -28 155 -50 104 -38 272
-90 294 -90 6 0 29 8 51 17 l41 17 -4 60 c-4 73 -9 89 -22 81 -5 -3 -10 -1
-10 6 0 7 -4 8 -12 2 -10 -7 -115 -10 -125 -3 -7 4 -84 3 -88 -2 -2 -2 -33 -3
-67 -1 -186 9 -278 8 -283 -5z"/>
<path d="M4520 3200 c0 -6 -6 -10 -13 -8 -19 4 -20 -5 -13 -81 13 -132 19
-153 41 -145 8 3 15 1 15 -5 0 -6 -4 -11 -9 -11 -14 0 -27 -49 -30 -110 -2
-59 -34 -204 -56 -257 -7 -17 -11 -34 -9 -36 6 -6 90 39 116 61 9 8 23 11 30
6 7 -4 10 -4 6 0 -3 4 19 29 50 54 31 25 67 57 80 69 13 13 28 20 34 17 6 -4
8 -3 5 3 -4 6 9 29 29 51 41 49 99 133 124 182 10 19 27 43 38 53 l21 19 -28
26 c-15 15 -44 40 -64 55 -21 16 -34 33 -31 39 5 7 2 8 -5 4 -7 -5 -20 -2 -29
6 -13 11 -40 13 -115 8 -57 -3 -102 -1 -108 5 -6 5 -9 5 -9 -1 0 -11 -40 -11
-58 0 -7 4 -12 2 -12 -4z"/>
<path d="M2295 3189 c-4 -6 -5 -12 -2 -15 2 -3 7 2 10 11 7 17 1 20 -8 4z"/>
<path d="M1395 3177 c-7 -17 -5 -33 11 -72 6 -16 3 -15 -15 5 l-23 25 16 -24
c9 -14 22 -26 31 -27 12 -2 14 6 9 39 -4 23 -10 49 -15 57 -6 13 -9 12 -14 -3z"/>
<path d="M1625 3168 c-3 -8 -5 -51 -3 -96 l3 -82 47 41 c29 24 53 37 60 33 7
-4 10 -4 6 1 -8 9 29 45 46 45 6 0 -12 14 -41 30 -29 16 -59 27 -68 24 -8 -4
-22 -1 -30 6 -12 10 -16 9 -20 -2z"/>
<path d="M881 3144 c0 -11 3 -14 6 -6 3 7 2 16 -1 19 -3 4 -6 -2 -5 -13z"/>
<path d="M2390 3147 c0 -2 15 -14 33 -27 l32 -23 -24 26 c-21 23 -41 35 -41
24z"/>
<path d="M0 3019 c0 -106 2 -119 18 -120 9 0 43 -2 75 -3 l57 -2 0 124 0 123
-75 -2 -75 -2 0 -118z"/>
<path d="M3108 3133 c7 -3 16 -2 19 1 4 3 -2 6 -13 5 -11 0 -14 -3 -6 -6z"/>
<path d="M2233 3123 c9 -2 23 -2 30 0 6 3 -1 5 -18 5 -16 0 -22 -2 -12 -5z"/>
<path d="M2336 3105 c-3 -9 -6 -22 -5 -28 0 -7 5 -1 10 12 5 13 8 26 5 28 -2
2 -6 -3 -10 -12z"/>
<path d="M4472 3090 c0 -19 2 -27 5 -17 2 9 2 25 0 35 -3 9 -5 1 -5 -18z"/>
<path d="M2733 3095 c-3 -9 -3 -18 -1 -21 3 -3 8 4 11 16 6 23 -1 27 -10 5z"/>
<path d="M2149 3063 c-13 -16 -12 -17 4 -4 9 7 17 15 17 17 0 8 -8 3 -21 -13z"/>
<path d="M1938 3043 c12 -2 32 -2 45 0 12 2 2 4 -23 4 -25 0 -35 -2 -22 -4z"/>
<path d="M4482 3015 c0 -16 2 -22 5 -12 2 9 2 23 0 30 -3 6 -5 -1 -5 -18z"/>
<path d="M4977 3012 c-15 -16 -15 -19 3 -30 18 -11 20 -9 20 18 0 35 -2 36
-23 12z"/>
<path d="M1730 3010 c-8 -5 -10 -10 -5 -10 6 0 17 5 25 10 8 5 11 10 5 10 -5
0 -17 -5 -25 -10z"/>
<path d="M2553 2945 c0 -38 2 -53 4 -32 2 20 2 52 0 70 -2 17 -4 1 -4 -38z"/>
<path d="M1580 2985 c0 -8 2 -15 4 -15 2 0 6 7 10 15 3 8 1 15 -4 15 -6 0 -10
-7 -10 -15z"/>
<path d="M2752 2909 c-18 -38 -54 -92 -80 -120 l-47 -51 -50 54 c-28 30 -63
74 -79 97 -31 46 -32 46 -65 -14 -20 -35 -6 -25 20 15 6 9 12 11 15 4 9 -20
102 -139 127 -163 22 -20 24 -27 15 -50 -14 -37 -38 -196 -38 -256 0 -27 6
-61 13 -74 29 -57 119 -45 125 17 2 17 5 32 7 32 3 0 30 -16 61 -36 69 -44 98
-77 115 -126 16 -51 33 -49 26 2 -6 50 -41 97 -96 130 -111 66 -104 57 -117
150 -7 47 -20 105 -28 129 -9 24 -14 46 -12 48 2 2 16 -7 32 -20 71 -57 113
-72 229 -81 93 -7 201 -41 247 -77 22 -18 39 -25 43 -19 18 29 -76 80 -195
106 -41 9 -78 22 -82 28 -6 8 -8 8 -8 -1 0 -26 -142 6 -185 42 l-30 25 54 -20
c29 -11 78 -23 110 -26 51 -6 58 -4 79 18 18 20 21 30 13 49 -16 44 -35 51
-151 57 -60 2 -110 8 -110 11 0 3 18 33 40 66 22 33 40 65 40 72 0 6 5 13 10
15 7 2 6 9 -2 19 -11 15 -17 8 -46 -52z m108 -159 c73 -10 104 -35 73 -57 -24
-18 -60 -16 -129 6 -32 11 -78 25 -102 31 -99 25 18 40 158 20z m-188 -200 c2
-22 0 -40 -4 -40 -5 0 -8 6 -8 14 0 7 -3 28 -7 46 -4 22 -3 31 4 27 6 -4 13
-25 15 -47z m-9 -97 c19 -36 22 -84 6 -100 -18 -18 -59 -3 -65 24 -8 31 1 187
12 204 5 8 12 -7 19 -42 6 -29 19 -68 28 -86z"/>
<path d="M4492 2895 c-1 -38 -4 -88 -7 -110 l-5 -40 11 40 c5 22 8 72 6 110
l-3 70 -2 -70z"/>
<path d="M2891 2924 c0 -11 3 -14 6 -6 3 7 2 16 -1 19 -3 4 -6 -2 -5 -13z"/>
<path d="M1499 2863 c-13 -16 -12 -17 4 -4 9 7 17 15 17 17 0 8 -8 3 -21 -13z"/>
<path d="M2840 2860 c6 -11 13 -20 16 -20 2 0 0 9 -6 20 -6 11 -13 20 -16 20
-2 0 0 -9 6 -20z"/>
<path d="M1459 2833 c-13 -16 -12 -17 4 -4 9 7 17 15 17 17 0 8 -8 3 -21 -13z"/>
<path d="M2580 2830 c6 -11 13 -20 16 -20 2 0 0 9 -6 20 -6 11 -13 20 -16 20
-2 0 0 -9 6 -20z"/>
<path d="M740 2814 c-19 -7 -44 -10 -55 -8 -13 4 -16 2 -8 -3 14 -10 -102 -57
-117 -48 -5 3 -10 1 -12 -5 -1 -5 -19 -11 -40 -12 -20 -2 -34 -6 -32 -9 5 -8
-121 -41 -163 -42 -17 -1 -29 -5 -27 -9 3 -5 -3 -8 -13 -9 -36 -1 -56 -8 -72
-24 -14 -14 -14 -16 -1 -13 8 2 14 -3 12 -10 -1 -8 1 -11 6 -8 12 7 54 -38 45
-49 -5 -4 -3 -5 4 -2 12 8 96 -107 86 -117 -4 -3 -1 -6 6 -6 7 0 9 -4 6 -10
-8 -12 -5 -12 31 -1 16 5 56 17 89 26 33 9 79 23 103 31 24 8 48 11 54 8 6 -4
8 -2 5 3 -4 6 5 13 21 17 15 3 32 9 38 13 9 6 94 277 94 299 0 7 -23 2 -60
-12z"/>
<path d="M1419 2803 c-13 -16 -12 -17 4 -4 9 7 17 15 17 17 0 8 -8 3 -21 -13z"/>
<path d="M1269 2723 c-33 -40 -40 -56 -11 -26 17 17 43 33 59 36 l28 4 -31 2
c-19 0 -37 -6 -45 -16z"/>
<path d="M4413 2549 c-12 -21 -17 -37 -12 -33 11 6 42 64 37 69 -2 2 -13 -14
-25 -36z"/>
<path d="M3430 2530 c-6 -11 -8 -20 -6 -20 3 0 10 9 16 20 6 11 8 20 6 20 -3
0 -10 -9 -16 -20z"/>
<path d="M3558 2463 c6 -2 18 -2 25 0 6 3 1 5 -13 5 -14 0 -19 -2 -12 -5z"/>
<path d="M4139 2456 c-2 -3 -61 -6 -130 -7 -188 -3 -222 -9 -260 -47 -19 -18
-39 -30 -47 -27 -7 2 -11 1 -8 -3 5 -8 -57 -46 -69 -43 -3 1 -12 -5 -20 -13
-11 -11 -112 -51 -155 -61 -66 -17 -76 -34 -40 -75 11 -13 20 -20 20 -15 0 9
35 -30 91 -102 22 -29 38 -57 35 -62 -3 -5 5 -8 18 -7 13 0 22 4 19 9 -4 6 15
11 44 10 7 -1 11 3 8 7 -4 7 35 23 60 24 6 1 16 7 24 14 7 7 21 10 29 7 9 -3
13 -3 10 1 -7 6 53 42 77 47 5 1 15 7 22 14 7 6 29 22 50 34 21 13 47 31 58
41 11 9 30 26 43 37 13 11 29 19 35 17 7 -1 9 -1 5 1 -15 9 -8 25 8 19 8 -3
12 -2 9 4 -7 11 60 101 69 92 4 -3 4 1 1 10 -4 9 0 22 8 29 8 7 12 21 9 31 -4
17 -14 23 -23 14z"/>
<path d="M3376 2407 c-9 -24 -15 -56 -15 -72 2 -27 2 -28 6 -5 8 49 24 89 38
92 11 2 11 5 0 15 -10 9 -16 3 -29 -30z"/>
<path d="M161 2393 c-1 -9 -24 -13 -81 -13 l-80 0 0 -115 0 -115 83 -1 c45 -1
86 -1 90 0 4 1 17 -4 29 -10 15 -8 19 -8 13 0 -4 8 3 10 26 6 18 -3 36 -8 40
-10 4 -3 8 54 8 125 2 100 -1 130 -11 131 -7 1 -20 2 -28 3 -8 0 -29 -2 -47
-5 -20 -4 -34 -2 -37 5 -3 7 -5 7 -5 -1z"/>
<path d="M686 2374 c-4 -14 -5 -28 -3 -31 3 -2 8 8 11 23 4 14 5 28 3 31 -3 2
-8 -8 -11 -23z"/>
<path d="M4976 2314 c-3 -8 -2 -12 3 -9 5 3 12 -3 14 -12 3 -11 5 -8 6 10 1
29 -13 37 -23 11z"/>
<path d="M1504 2194 c-18 -14 -18 -14 6 -3 31 14 36 19 24 19 -6 0 -19 -7 -30
-16z"/>
<path d="M3372 2190 c0 -14 2 -19 5 -12 2 6 2 18 0 25 -3 6 -5 1 -5 -13z"/>
<path d="M3361 2114 c0 -11 3 -14 6 -6 3 7 2 16 -1 19 -3 4 -6 -2 -5 -13z"/>
<path d="M1253 2054 c-41 -18 -51 -34 -21 -35 13 0 35 -2 49 -3 26 -1 28 3 20
47 -1 9 -10 8 -48 -9z"/>
<path d="M1455 1970 c-27 -28 -56 -48 -63 -45 -7 2 -10 1 -7 -5 3 -5 -7 -17
-22 -27 -15 -10 -34 -24 -42 -31 -7 -7 -20 -11 -27 -8 -8 3 -11 0 -8 -8 3 -8
-7 -18 -25 -26 -17 -7 -31 -16 -31 -20 0 -11 -51 -31 -62 -24 -7 4 -8 2 -4 -4
4 -7 2 -12 -4 -12 -6 0 -18 -7 -27 -16 -9 -8 -23 -12 -31 -9 -9 3 -13 3 -9 -1
10 -11 -71 -57 -85 -48 -6 4 -8 3 -5 -3 6 -9 -103 -67 -119 -63 -4 1 -10 -2
-13 -7 -10 -14 -92 -47 -112 -46 -11 1 -17 -2 -15 -6 3 -4 -20 -16 -52 -26
-31 -10 -67 -22 -78 -27 -12 -6 -33 -11 -47 -11 -14 -1 -23 -4 -21 -6 2 -3
-31 -15 -73 -27 -43 -12 -80 -21 -82 -18 -2 2 -9 0 -16 -6 -6 -5 -27 -12 -46
-15 -19 -2 -57 -10 -85 -17 l-52 -13 59 -60 c32 -33 57 -66 54 -73 -3 -7 -1
-10 5 -7 5 3 16 -6 25 -20 8 -14 22 -36 30 -49 14 -23 15 -23 55 -10 23 8 46
12 51 9 5 -4 9 -1 9 4 0 6 8 11 18 11 9 0 41 9 70 19 28 11 52 17 52 14 0 -3
6 0 13 6 8 6 30 12 49 13 20 2 34 6 31 11 -4 6 15 11 44 10 7 -1 10 4 7 9 -4
6 -1 9 7 6 8 -3 20 2 28 9 7 8 20 12 27 9 8 -3 14 -2 14 3 0 4 26 19 58 33
l59 25 -1 -265 c-1 -219 -3 -266 -15 -270 -10 -3 -12 0 -7 14 5 15 4 16 -5 7
-14 -14 -2 -36 17 -29 18 7 12 -53 -6 -64 -8 -5 -4 -8 13 -7 14 1 23 6 20 10
-3 5 3 5 13 0 11 -5 64 -7 119 -6 127 4 111 4 173 0 29 -2 48 -1 42 3 -6 4
-13 36 -15 73 -3 52 -1 65 10 61 7 -3 16 -1 19 4 3 5 -2 9 -12 8 -16 -1 -17
15 -18 186 -1 129 1 186 9 181 6 -4 7 -1 1 8 -13 21 -13 171 0 188 8 11 8 13
0 8 -7 -4 -11 2 -11 18 0 29 30 60 48 49 8 -4 10 -3 5 4 -4 7 -2 12 4 12 6 0
25 10 43 22 18 12 44 30 60 40 15 11 32 16 37 13 6 -4 9 -2 8 5 -2 6 11 18 27
28 17 9 32 19 35 22 21 23 64 49 73 43 6 -3 7 -1 3 5 -4 7 -1 12 9 12 9 0 13
5 10 10 -3 6 0 10 7 10 7 0 26 14 42 31 17 16 36 27 43 25 7 -3 12 -2 11 2 -1
4 4 18 11 31 7 13 8 20 2 17 -13 -8 -94 32 -86 43 2 5 -1 9 -8 8 -34 -1 -48 4
-41 15 4 6 3 8 -4 4 -12 -7 -62 13 -62 26 0 4 -3 7 -7 6 -15 -3 -73 28 -66 35
3 4 4 7 2 7 -3 0 -27 -23 -54 -50z"/>
<path d="M3405 1825 l0 -121 563 1 c310 0 566 -3 569 -8 7 -11 -17 -38 -28
-31 -5 3 -9 2 -8 -3 4 -23 -2 -35 -16 -29 -8 3 -14 0 -12 -7 1 -7 -5 -11 -13
-9 -8 2 -12 0 -7 -4 9 -9 -22 -44 -40 -44 -7 0 -13 -3 -13 -8 0 -9 -67 -46
-73 -41 -2 2 -12 -4 -22 -14 -9 -10 -24 -16 -32 -13 -8 3 -11 1 -8 -4 3 -6 2
-10 -4 -10 -5 0 -16 -3 -25 -6 -13 -5 -16 2 -16 39 0 27 5 47 13 50 8 4 8 6 1
6 -8 1 -9 12 -5 34 l8 32 -177 0 -176 0 2 -118 c2 -92 -1 -121 -13 -132 -8 -9
-10 -15 -4 -15 24 0 -23 -124 -62 -163 -14 -13 -23 -28 -20 -31 4 -3 -1 -6
-11 -6 -9 0 -14 -4 -11 -10 3 -5 2 -10 -3 -10 -5 0 -25 -13 -43 -30 -19 -16
-40 -28 -47 -25 -7 3 -11 1 -8 -3 3 -5 -14 -16 -37 -26 -23 -9 -54 -24 -69
-32 -15 -8 -41 -16 -57 -17 -16 -1 -27 -5 -24 -9 2 -5 -4 -9 -14 -10 -10 0
-23 -2 -30 -2 -6 -1 -15 -5 -19 -9 -4 -4 -16 -7 -26 -7 -26 0 -22 -15 13 -44
18 -15 27 -31 23 -37 -5 -8 -3 -9 5 -4 15 9 55 -30 46 -45 -3 -6 1 -7 9 -4 16
6 23 -10 9 -19 -5 -2 -2 -2 4 -1 7 2 27 -19 45 -46 18 -27 35 -45 39 -39 3 5
17 11 30 13 25 3 104 35 152 62 15 8 33 12 40 8 6 -4 9 -4 5 1 -8 8 57 45 80
45 7 0 11 4 8 9 -7 11 22 23 36 14 7 -3 8 -1 4 5 -4 6 18 29 51 53 61 45 88
69 79 69 -3 0 4 11 16 25 11 13 26 22 31 18 6 -4 7 -1 3 6 -5 7 -1 20 7 29 9
9 23 36 32 60 10 23 20 42 24 42 4 0 7 8 8 18 1 9 4 26 6 37 2 11 7 43 12 70
5 28 8 55 7 62 -2 6 2 14 8 18 14 8 142 -83 134 -96 -3 -5 -2 -9 3 -8 22 4 35
-2 30 -14 -4 -10 3 -13 26 -10 18 2 40 4 49 5 9 1 14 6 12 10 -3 4 1 8 9 8 8
0 20 7 27 15 7 9 20 13 29 10 8 -3 12 -3 8 1 -10 10 64 53 82 47 13 -4 13 -3
2 5 -10 7 -8 13 10 26 13 9 29 16 37 16 7 0 10 5 7 10 -3 6 -2 10 2 10 5 0 24
15 43 34 49 47 110 116 103 116 -3 0 0 6 7 14 6 8 19 12 28 9 14 -4 15 -3 2 5
-12 9 -11 14 5 34 11 13 24 26 28 29 5 3 8 9 8 13 -2 17 1 24 19 44 12 12 18
22 14 22 -4 0 2 8 13 18 19 16 29 57 11 46 -13 -8 -39 16 -31 29 3 5 2 7 -3 4
-6 -3 -32 15 -60 41 l-50 47 -417 0 c-229 0 -417 -4 -417 -8 0 -5 -5 -5 -12
-1 -6 4 -138 8 -292 8 l-281 1 0 -120z"/>
<path d="M2667 1889 c4 -13 8 -18 11 -10 2 7 -1 18 -6 23 -8 8 -9 4 -5 -13z"/>
<path d="M7 1873 c-10 -9 -9 -233 1 -234 4 0 35 -2 70 -3 51 -2 66 2 80 18 9
11 12 17 6 13 -8 -4 -11 15 -12 63 0 47 3 70 11 70 8 0 9 3 1 8 -5 4 -10 17
-11 30 0 12 -1 27 -2 32 -1 11 -134 14 -144 3z"/>
<path d="M4973 1754 c-22 -23 -22 -23 -2 -29 26 -9 31 -3 27 27 l-3 25 -22
-23z"/>
<path d="M1981 1694 c0 -11 3 -14 6 -6 3 7 2 16 -1 19 -3 4 -6 -2 -5 -13z"/>
<path d="M1869 1533 l-24 -28 28 24 c25 23 32 31 24 31 -2 0 -14 -12 -28 -27z"/>
<path d="M1440 1400 c-9 -6 -10 -10 -3 -10 6 0 15 5 18 10 8 12 4 12 -15 0z"/>
<path d="M1870 1399 c0 -5 5 -7 10 -4 6 3 10 8 10 11 0 2 -4 4 -10 4 -5 0 -10
-5 -10 -11z"/>
<path d="M45 1350 c-3 -6 1 -7 9 -4 18 7 21 14 7 14 -6 0 -13 -4 -16 -10z"/>
<path d="M1355 1350 c-3 -6 1 -7 9 -4 18 7 21 14 7 14 -6 0 -13 -4 -16 -10z"/>
<path d="M1776 1255 c-3 -8 -1 -15 4 -15 6 0 10 7 10 15 0 8 -2 15 -4 15 -2 0
-6 -7 -10 -15z"/>
<path d="M777 1220 c-9 -11 -13 -20 -9 -20 4 0 15 9 25 20 9 11 13 20 9 20 -4
0 -15 -9 -25 -20z"/>
<path d="M1616 1232 c-2 -4 4 -8 14 -8 10 0 16 4 14 8 -3 4 -9 8 -14 8 -5 0
-11 -4 -14 -8z"/>
<path d="M3211 1214 c0 -11 3 -14 6 -6 3 7 2 16 -1 19 -3 4 -6 -2 -5 -13z"/>
<path d="M237 1209 c7 -7 15 -10 18 -7 3 3 -2 9 -12 12 -14 6 -15 5 -6 -5z"/>
<path d="M4477 1209 c7 -7 15 -10 18 -7 3 3 -2 9 -12 12 -14 6 -15 5 -6 -5z"/>
<path d="M4617 1209 c7 -7 15 -10 18 -7 3 3 -2 9 -12 12 -14 6 -15 5 -6 -5z"/>
<path d="M1685 1200 c-3 -6 1 -7 9 -4 18 7 21 14 7 14 -6 0 -13 -4 -16 -10z"/>
<path d="M430 1156 c7 -7 13 -7 20 0 6 6 3 10 -10 10 -13 0 -16 -4 -10 -10z"/>
<path d="M616 1162 c-2 -4 4 -8 14 -8 10 0 16 4 14 8 -3 4 -9 8 -14 8 -5 0
-11 -4 -14 -8z"/>
<path d="M856 1162 c-2 -4 4 -8 14 -8 10 0 16 4 14 8 -3 4 -9 8 -14 8 -5 0
-11 -4 -14 -8z"/>
<path d="M3546 1162 c-2 -4 4 -8 14 -8 10 0 16 4 14 8 -3 4 -9 8 -14 8 -5 0
-11 -4 -14 -8z"/>
<path d="M4616 1162 c-2 -4 4 -8 14 -8 10 0 16 4 14 8 -3 4 -9 8 -14 8 -5 0
-11 -4 -14 -8z"/>
<path d="M140 1128 c0 -5 -31 -8 -70 -8 l-70 0 0 -115 0 -115 108 0 c73 0 102
-3 92 -10 -9 -6 -10 -10 -3 -10 6 0 15 5 18 10 3 6 17 10 31 10 14 0 23 -3 21
-7 -3 -5 7 -9 21 -9 15 -1 21 1 15 3 -7 3 -13 17 -13 33 0 16 6 31 13 33 10 4
10 6 0 6 -21 2 -17 121 5 137 16 13 16 14 0 8 -10 -3 -18 -1 -18 5 0 6 5 11
11 11 6 0 5 5 -3 13 -14 14 -158 18 -158 5z"/>
<path d="M4980 1050 c6 -11 13 -20 15 -20 3 0 5 9 5 20 0 11 -7 20 -15 20 -13
0 -14 -4 -5 -20z"/>
<path d="M740 1046 c0 -2 7 -7 16 -10 8 -3 12 -2 9 4 -6 10 -25 14 -25 6z"/>
<path d="M810 1046 c0 -2 7 -7 16 -10 8 -3 12 -2 9 4 -6 10 -25 14 -25 6z"/>
<path d="M4740 1046 c0 -2 7 -7 16 -10 8 -3 12 -2 9 4 -6 10 -25 14 -25 6z"/>
<path d="M4810 1046 c0 -2 7 -7 16 -10 8 -3 12 -2 9 4 -6 10 -25 14 -25 6z"/>
<path d="M3316 1007 c3 -10 9 -15 12 -12 3 3 0 11 -7 18 -10 9 -11 8 -5 -6z"/>
<path d="M736 972 c-2 -4 4 -8 14 -8 10 0 16 4 14 8 -3 4 -9 8 -14 8 -5 0 -11
-4 -14 -8z"/>
<path d="M4736 972 c-2 -4 4 -8 14 -8 10 0 16 4 14 8 -3 4 -9 8 -14 8 -5 0
-11 -4 -14 -8z"/>
<path d="M1512 950 c0 -14 2 -19 5 -12 2 6 2 18 0 25 -3 6 -5 1 -5 -13z"/>
<path d="M3351 904 c0 -11 3 -14 6 -6 3 7 2 16 -1 19 -3 4 -6 -2 -5 -13z"/>
<path d="M320 900 c-9 -6 -10 -10 -3 -10 6 0 15 5 18 10 8 12 4 12 -15 0z"/>
<path d="M560 900 c-9 -6 -10 -10 -3 -10 6 0 15 5 18 10 8 12 4 12 -15 0z"/>
<path d="M790 896 c7 -7 13 -7 20 0 6 6 3 10 -10 10 -13 0 -16 -4 -10 -10z"/>
<path d="M4560 900 c-9 -6 -10 -10 -3 -10 6 0 15 5 18 10 8 12 4 12 -15 0z"/>
<path d="M4790 896 c7 -7 13 -7 20 0 6 6 3 10 -10 10 -13 0 -16 -4 -10 -10z"/>
<path d="M2855 890 c11 -5 27 -9 35 -9 9 0 8 4 -5 9 -11 5 -27 9 -35 9 -9 0
-8 -4 5 -9z"/>
<path d="M0 856 c0 -2 7 -7 16 -10 8 -3 12 -2 9 4 -6 10 -25 14 -25 6z"/>
<path d="M170 856 c0 -2 7 -7 16 -10 8 -3 12 -2 9 4 -6 10 -25 14 -25 6z"/>
<path d="M615 850 c-3 -6 1 -7 9 -4 18 7 21 14 7 14 -6 0 -13 -4 -16 -10z"/>
<path d="M3380 856 c0 -2 7 -7 16 -10 8 -3 12 -2 9 4 -6 10 -25 14 -25 6z"/>
<path d="M3995 850 c-3 -6 1 -7 9 -4 18 7 21 14 7 14 -6 0 -13 -4 -16 -10z"/>
<path d="M4615 850 c-3 -6 1 -7 9 -4 18 7 21 14 7 14 -6 0 -13 -4 -16 -10z"/>
<path d="M3304 828 l-19 -23 23 19 c21 18 27 26 19 26 -2 0 -12 -10 -23 -22z"/>
<path d="M3820 780 c-9 -6 -10 -10 -3 -10 6 0 15 5 18 10 8 12 4 12 -15 0z"/>
<path d="M1536 747 c-8 -40 -4 -41 14 -3 11 24 12 33 4 33 -7 0 -15 -14 -18
-30z"/>
<path d="M3323 712 c25 -29 48 -65 50 -80 l4 -27 2 27 c1 20 -12 41 -50 80
l-51 53 45 -53z"/>
<path d="M1045 730 c-8 -13 3 -30 18 -30 7 0 6 4 -3 10 -13 9 -13 11 0 20 9 6
10 10 3 10 -6 0 -15 -4 -18 -10z"/>
<path d="M1185 730 c-8 -13 3 -30 18 -30 7 0 6 4 -3 10 -13 9 -13 11 0 20 9 6
10 10 3 10 -6 0 -15 -4 -18 -10z"/>
<path d="M1521 674 c0 -11 3 -14 6 -6 3 7 2 16 -1 19 -3 4 -6 -2 -5 -13z"/>
<path d="M2073 663 c9 -2 25 -2 35 0 9 3 1 5 -18 5 -19 0 -27 -2 -17 -5z"/>
<path d="M3740 666 c0 -2 7 -7 16 -10 8 -3 12 -2 9 4 -6 10 -25 14 -25 6z"/>
<path d="M2018 653 c7 -3 16 -2 19 1 4 3 -2 6 -13 5 -11 0 -14 -3 -6 -6z"/>
<path d="M1511 634 c0 -11 3 -14 6 -6 3 7 2 16 -1 19 -3 4 -6 -2 -5 -13z"/>
<path d="M1925 640 c-25 -11 1 -11 35 0 20 6 21 8 5 8 -11 0 -29 -3 -40 -8z"/>
<path d="M3223 633 c15 -2 39 -2 55 0 15 2 2 4 -28 4 -30 0 -43 -2 -27 -4z"/>
<path d="M2958 623 c7 -3 16 -2 19 1 4 3 -2 6 -13 5 -11 0 -14 -3 -6 -6z"/>
<path d="M1848 613 c7 -3 16 -2 19 1 4 3 -2 6 -13 5 -11 0 -14 -3 -6 -6z"/>
<path d="M1250 590 c-9 -6 -10 -10 -3 -10 6 0 15 5 18 10 8 12 4 12 -15 0z"/>
<path d="M3550 586 c7 -7 13 -7 20 0 6 6 3 10 -10 10 -13 0 -16 -4 -10 -10z"/>
<path d="M3940 590 c-9 -6 -10 -10 -3 -10 6 0 15 5 18 10 8 12 4 12 -15 0z"/>
<path d="M1700 570 c-8 -5 -10 -10 -5 -10 6 0 17 5 25 10 8 5 11 10 5 10 -5 0
-17 -5 -25 -10z"/>
<path d="M165 540 c-3 -6 1 -7 9 -4 18 7 21 14 7 14 -6 0 -13 -4 -16 -10z"/>
<path d="M234 539 c-3 -6 -1 -16 6 -22 10 -9 11 -9 5 2 -4 8 -2 17 6 22 9 6
10 9 2 9 -6 0 -15 -5 -19 -11z"/>
<path d="M306 542 c-2 -4 4 -8 14 -8 10 0 16 4 14 8 -3 4 -9 8 -14 8 -5 0 -11
-4 -14 -8z"/>
<path d="M545 540 c-3 -6 1 -7 9 -4 18 7 21 14 7 14 -6 0 -13 -4 -16 -10z"/>
<path d="M690 546 c0 -2 7 -7 16 -10 8 -3 12 -2 9 4 -6 10 -25 14 -25 6z"/>
<path d="M860 546 c0 -2 7 -7 16 -10 8 -3 12 -2 9 4 -6 10 -25 14 -25 6z"/>
<path d="M1235 540 c-3 -6 1 -7 9 -4 18 7 21 14 7 14 -6 0 -13 -4 -16 -10z"/>
<path d="M1922 525 c0 -16 2 -22 5 -12 2 9 2 23 0 30 -3 6 -5 -1 -5 -18z"/>
<path d="M3855 540 c-3 -6 1 -7 9 -4 18 7 21 14 7 14 -6 0 -13 -4 -16 -10z"/>
<path d="M3930 546 c0 -2 7 -7 16 -10 8 -3 12 -2 9 4 -6 10 -25 14 -25 6z"/>
<path d="M4165 540 c-3 -6 1 -7 9 -4 18 7 21 14 7 14 -6 0 -13 -4 -16 -10z"/>
<path d="M4234 539 c-3 -6 -1 -16 6 -22 10 -9 11 -9 5 2 -4 8 -2 17 6 22 9 6
10 9 2 9 -6 0 -15 -5 -19 -11z"/>
<path d="M4306 542 c-2 -4 4 -8 14 -8 10 0 16 4 14 8 -3 4 -9 8 -14 8 -5 0
-11 -4 -14 -8z"/>
<path d="M4545 540 c-3 -6 1 -7 9 -4 18 7 21 14 7 14 -6 0 -13 -4 -16 -10z"/>
<path d="M4690 546 c0 -2 7 -7 16 -10 8 -3 12 -2 9 4 -6 10 -25 14 -25 6z"/>
<path d="M4860 546 c0 -2 7 -7 16 -10 8 -3 12 -2 9 4 -6 10 -25 14 -25 6z"/>
<path d="M3702 524 c-7 -8 -8 -14 -3 -14 10 0 25 19 20 25 -2 1 -10 -3 -17
-11z"/>
<path d="M790 516 c7 -7 13 -7 20 0 6 6 3 10 -10 10 -13 0 -16 -4 -10 -10z"/>
<path d="M927 519 c7 -7 15 -10 18 -7 3 3 -2 9 -12 12 -14 6 -15 5 -6 -5z"/>
<path d="M4790 516 c7 -7 13 -7 20 0 6 6 3 10 -10 10 -13 0 -16 -4 -10 -10z"/>
<path d="M4927 519 c7 -7 15 -10 18 -7 3 3 -2 9 -12 12 -14 6 -15 5 -6 -5z"/>
<path d="M1567 503 c-4 -3 -7 -11 -7 -17 0 -6 5 -5 12 2 6 6 9 14 7 17 -3 3
-9 2 -12 -2z"/>
<path d="M616 472 c-2 -4 4 -8 14 -8 10 0 16 4 14 8 -3 4 -9 8 -14 8 -5 0 -11
-4 -14 -8z"/>
<path d="M926 472 c-2 -4 4 -8 14 -8 10 0 16 4 14 8 -3 4 -9 8 -14 8 -5 0 -11
-4 -14 -8z"/>
<path d="M3926 472 c-2 -4 4 -8 14 -8 10 0 16 4 14 8 -3 4 -9 8 -14 8 -5 0
-11 -4 -14 -8z"/>
<path d="M4000 476 c0 -2 7 -7 16 -10 8 -3 12 -2 9 4 -6 10 -25 14 -25 6z"/>
<path d="M4616 472 c-2 -4 4 -8 14 -8 10 0 16 4 14 8 -3 4 -9 8 -14 8 -5 0
-11 -4 -14 -8z"/>
<path d="M4926 472 c-2 -4 4 -8 14 -8 10 0 16 4 14 8 -3 4 -9 8 -14 8 -5 0
-11 -4 -14 -8z"/>
<path d="M1480 416 c0 -2 7 -9 15 -16 9 -7 15 -8 15 -2 0 5 -7 12 -15 16 -8 3
-15 4 -15 2z"/>
<path d="M117 399 c7 -7 15 -10 18 -7 3 3 -2 9 -12 12 -14 6 -15 5 -6 -5z"/>
<path d="M200 400 c-9 -6 -10 -10 -3 -10 6 0 15 5 18 10 8 12 4 12 -15 0z"/>
<path d="M290 396 c7 -7 13 -7 20 0 6 6 3 10 -10 10 -13 0 -16 -4 -10 -10z"/>
<path d="M430 396 c7 -7 13 -7 20 0 6 6 3 10 -10 10 -13 0 -16 -4 -10 -10z"/>
<path d="M600 396 c7 -7 13 -7 20 0 6 6 3 10 -10 10 -13 0 -16 -4 -10 -10z"/>
<path d="M680 400 c-9 -6 -10 -10 -3 -10 6 0 15 5 18 10 8 12 4 12 -15 0z"/>
<path d="M750 400 c-9 -6 -10 -10 -3 -10 6 0 15 5 18 10 8 12 4 12 -15 0z"/>
<path d="M820 400 c-9 -6 -10 -10 -3 -10 6 0 15 5 18 10 8 12 4 12 -15 0z"/>
<path d="M1050 396 c7 -7 13 -7 20 0 6 6 3 10 -10 10 -13 0 -16 -4 -10 -10z"/>
<path d="M1120 396 c7 -7 13 -7 20 0 6 6 3 10 -10 10 -13 0 -16 -4 -10 -10z"/>
<path d="M1201 400 c-9 -5 -4 -7 13 -7 29 0 32 2 13 10 -8 3 -20 2 -26 -3z"/>
<path d="M1290 396 c7 -7 13 -7 20 0 6 6 3 10 -10 10 -13 0 -16 -4 -10 -10z"/>
<path d="M1357 399 c7 -7 15 -10 18 -7 3 3 -2 9 -12 12 -14 6 -15 5 -6 -5z"/>
<path d="M3810 396 c7 -7 13 -7 20 0 6 6 3 10 -10 10 -13 0 -16 -4 -10 -10z"/>
<path d="M3977 399 c7 -7 15 -10 18 -7 3 3 -2 9 -12 12 -14 6 -15 5 -6 -5z"/>
<path d="M4047 399 c7 -7 15 -10 18 -7 3 3 -2 9 -12 12 -14 6 -15 5 -6 -5z"/>
<path d="M4117 399 c7 -7 15 -10 18 -7 3 3 -2 9 -12 12 -14 6 -15 5 -6 -5z"/>
<path d="M4200 400 c-9 -6 -10 -10 -3 -10 6 0 15 5 18 10 8 12 4 12 -15 0z"/>
<path d="M4290 396 c7 -7 13 -7 20 0 6 6 3 10 -10 10 -13 0 -16 -4 -10 -10z"/>
<path d="M4430 396 c7 -7 13 -7 20 0 6 6 3 10 -10 10 -13 0 -16 -4 -10 -10z"/>
<path d="M4600 396 c7 -7 13 -7 20 0 6 6 3 10 -10 10 -13 0 -16 -4 -10 -10z"/>
<path d="M4680 400 c-9 -6 -10 -10 -3 -10 6 0 15 5 18 10 8 12 4 12 -15 0z"/>
<path d="M4750 400 c-9 -6 -10 -10 -3 -10 6 0 15 5 18 10 8 12 4 12 -15 0z"/>
<path d="M4820 400 c-9 -6 -10 -10 -3 -10 6 0 15 5 18 10 8 12 4 12 -15 0z"/>
<path d="M45 350 c-3 -6 1 -7 9 -4 18 7 21 14 7 14 -6 0 -13 -4 -16 -10z"/>
<path d="M496 352 c-2 -4 4 -8 14 -8 10 0 16 4 14 8 -3 4 -9 8 -14 8 -5 0 -11
-4 -14 -8z"/>
<path d="M595 350 c-3 -6 1 -7 9 -4 18 7 21 14 7 14 -6 0 -13 -4 -16 -10z"/>
<path d="M666 352 c-2 -4 4 -8 14 -8 10 0 16 4 14 8 -3 4 -9 8 -14 8 -5 0 -11
-4 -14 -8z"/>
<path d="M880 356 c0 -2 7 -7 16 -10 8 -3 12 -2 9 4 -6 10 -25 14 -25 6z"/>
<path d="M1120 356 c0 -2 7 -7 16 -10 8 -3 12 -2 9 4 -6 10 -25 14 -25 6z"/>
<path d="M1285 350 c-3 -6 1 -7 9 -4 18 7 21 14 7 14 -6 0 -13 -4 -16 -10z"/>
<path d="M3875 350 c-3 -6 1 -7 9 -4 18 7 21 14 7 14 -6 0 -13 -4 -16 -10z"/>
<path d="M3975 350 c-3 -6 1 -7 9 -4 18 7 21 14 7 14 -6 0 -13 -4 -16 -10z"/>
<path d="M4046 352 c-2 -4 4 -8 14 -8 10 0 16 4 14 8 -3 4 -9 8 -14 8 -5 0
-11 -4 -14 -8z"/>
<path d="M4496 352 c-2 -4 4 -8 14 -8 10 0 16 4 14 8 -3 4 -9 8 -14 8 -5 0
-11 -4 -14 -8z"/>
<path d="M4595 350 c-3 -6 1 -7 9 -4 18 7 21 14 7 14 -6 0 -13 -4 -16 -10z"/>
<path d="M4666 352 c-2 -4 4 -8 14 -8 10 0 16 4 14 8 -3 4 -9 8 -14 8 -5 0
-11 -4 -14 -8z"/>
<path d="M4880 356 c0 -2 7 -7 16 -10 8 -3 12 -2 9 4 -6 10 -25 14 -25 6z"/>
<path d="M3907 329 c7 -7 15 -10 18 -7 3 3 -2 9 -12 12 -14 6 -15 5 -6 -5z"/>
<path d="M3830 306 c0 -2 7 -7 16 -10 8 -3 12 -2 9 4 -6 10 -25 14 -25 6z"/>
<path d="M240 276 c7 -7 13 -7 20 0 6 6 3 10 -10 10 -13 0 -16 -4 -10 -10z"/>
<path d="M596 281 c-5 -8 40 -9 47 -1 3 3 -6 6 -19 6 -13 1 -26 -1 -28 -5z"/>
<path d="M690 276 c7 -7 13 -7 20 0 6 6 3 10 -10 10 -13 0 -16 -4 -10 -10z"/>
<path d="M736 282 c-2 -4 4 -8 14 -8 10 0 16 4 14 8 -3 4 -9 8 -14 8 -5 0 -11
-4 -14 -8z"/>
<path d="M1320 280 c-9 -6 -10 -10 -3 -10 6 0 15 5 18 10 8 12 4 12 -15 0z"/>
<path d="M3930 276 c7 -7 13 -7 20 0 6 6 3 10 -10 10 -13 0 -16 -4 -10 -10z"/>
<path d="M4240 276 c7 -7 13 -7 20 0 6 6 3 10 -10 10 -13 0 -16 -4 -10 -10z"/>
<path d="M4596 281 c-5 -8 40 -9 47 -1 3 3 -6 6 -19 6 -13 1 -26 -1 -28 -5z"/>
<path d="M4690 276 c7 -7 13 -7 20 0 6 6 3 10 -10 10 -13 0 -16 -4 -10 -10z"/>
<path d="M4736 282 c-2 -4 4 -8 14 -8 10 0 16 4 14 8 -3 4 -9 8 -14 8 -5 0
-11 -4 -14 -8z"/>
<path d="M685 230 c-3 -6 1 -7 9 -4 18 7 21 14 7 14 -6 0 -13 -4 -16 -10z"/>
<path d="M1165 230 c-3 -6 1 -7 9 -4 18 7 21 14 7 14 -6 0 -13 -4 -16 -10z"/>
<path d="M4685 230 c-3 -6 1 -7 9 -4 18 7 21 14 7 14 -6 0 -13 -4 -16 -10z"/>
<path d="M10 210 c-9 -6 -10 -10 -3 -10 6 0 15 5 18 10 8 12 4 12 -15 0z"/>
<path d="M180 210 c-9 -6 -10 -10 -3 -10 6 0 15 5 18 10 8 12 4 12 -15 0z"/>
<path d="M480 206 c7 -7 13 -7 20 0 6 6 3 10 -10 10 -13 0 -16 -4 -10 -10z"/>
<path d="M617 209 c7 -7 15 -10 18 -7 3 3 -2 9 -12 12 -14 6 -15 5 -6 -5z"/>
<path d="M701 210 c-9 -5 -4 -7 13 -7 29 0 32 2 13 10 -8 3 -20 2 -26 -3z"/>
<path d="M787 209 c7 -7 15 -10 18 -7 3 3 -2 9 -12 12 -14 6 -15 5 -6 -5z"/>
<path d="M870 210 c-9 -6 -10 -10 -3 -10 6 0 15 5 18 10 8 12 4 12 -15 0z"/>
<path d="M1097 209 c7 -7 15 -10 18 -7 3 3 -2 9 -12 12 -14 6 -15 5 -6 -5z"/>
<path d="M1237 209 c7 -7 15 -10 18 -7 3 3 -2 9 -12 12 -14 6 -15 5 -6 -5z"/>
<path d="M3320 210 c0 -5 5 -10 11 -10 5 0 7 5 4 10 -3 6 -8 10 -11 10 -2 0
-4 -4 -4 -10z"/>
<path d="M3870 210 c-9 -6 -10 -10 -3 -10 6 0 15 5 18 10 8 12 4 12 -15 0z"/>
<path d="M3940 210 c-9 -6 -10 -10 -3 -10 6 0 15 5 18 10 8 12 4 12 -15 0z"/>
<path d="M4010 210 c-9 -6 -10 -10 -3 -10 6 0 15 5 18 10 8 12 4 12 -15 0z"/>
<path d="M4180 210 c-9 -6 -10 -10 -3 -10 6 0 15 5 18 10 8 12 4 12 -15 0z"/>
<path d="M4480 206 c7 -7 13 -7 20 0 6 6 3 10 -10 10 -13 0 -16 -4 -10 -10z"/>
<path d="M4617 209 c7 -7 15 -10 18 -7 3 3 -2 9 -12 12 -14 6 -15 5 -6 -5z"/>
<path d="M4701 210 c-9 -5 -4 -7 13 -7 29 0 32 2 13 10 -8 3 -20 2 -26 -3z"/>
<path d="M4787 209 c7 -7 15 -10 18 -7 3 3 -2 9 -12 12 -14 6 -15 5 -6 -5z"/>
<path d="M4870 210 c-9 -6 -10 -10 -3 -10 6 0 15 5 18 10 8 12 4 12 -15 0z"/>
<path d="M2500 195 c0 -5 5 -17 10 -25 5 -8 10 -10 10 -5 0 6 -5 17 -10 25 -5
8 -10 11 -10 5z"/>
<path d="M3806 185 c-9 -26 -7 -32 5 -12 6 10 9 21 6 23 -2 3 -7 -2 -11 -11z"/>
<path d="M166 162 c-2 -4 4 -8 14 -8 10 0 16 4 14 8 -3 4 -9 8 -14 8 -5 0 -11
-4 -14 -8z"/>
<path d="M616 162 c-2 -4 4 -8 14 -8 10 0 16 4 14 8 -3 4 -9 8 -14 8 -5 0 -11
-4 -14 -8z"/>
<path d="M740 156 c7 -7 13 -7 20 0 6 6 3 10 -10 10 -13 0 -16 -4 -10 -10z"/>
<path d="M856 162 c-2 -4 4 -8 14 -8 10 0 16 4 14 8 -3 4 -9 8 -14 8 -5 0 -11
-4 -14 -8z"/>
<path d="M926 162 c-2 -4 4 -8 14 -8 10 0 16 4 14 8 -3 4 -9 8 -14 8 -5 0 -11
-4 -14 -8z"/>
<path d="M1165 160 c-3 -6 1 -7 9 -4 18 7 21 14 7 14 -6 0 -13 -4 -16 -10z"/>
<path d="M3926 162 c-2 -4 4 -8 14 -8 10 0 16 4 14 8 -3 4 -9 8 -14 8 -5 0
-11 -4 -14 -8z"/>
<path d="M4166 162 c-2 -4 4 -8 14 -8 10 0 16 4 14 8 -3 4 -9 8 -14 8 -5 0
-11 -4 -14 -8z"/>
<path d="M4616 162 c-2 -4 4 -8 14 -8 10 0 16 4 14 8 -3 4 -9 8 -14 8 -5 0
-11 -4 -14 -8z"/>
<path d="M4740 156 c7 -7 13 -7 20 0 6 6 3 10 -10 10 -13 0 -16 -4 -10 -10z"/>
<path d="M4856 162 c-2 -4 4 -8 14 -8 10 0 16 4 14 8 -3 4 -9 8 -14 8 -5 0
-11 -4 -14 -8z"/>
<path d="M4926 162 c-2 -4 4 -8 14 -8 10 0 16 4 14 8 -3 4 -9 8 -14 8 -5 0
-11 -4 -14 -8z"/>
<path d="M1571 134 c0 -11 3 -14 6 -6 3 7 2 16 -1 19 -3 4 -6 -2 -5 -13z"/>
<path d="M1044 109 c-11 -18 14 -35 29 -20 10 10 9 11 -5 6 -20 -8 -25 10 -5
18 9 4 9 6 0 6 -6 1 -15 -4 -19 -10z"/>
<path d="M4975 109 c-11 -16 -1 -19 13 -3 7 8 8 14 3 14 -5 0 -13 -5 -16 -11z"/>
<path d="M50 86 c7 -7 13 -7 20 0 6 6 3 10 -10 10 -13 0 -16 -4 -10 -10z"/>
<path d="M190 86 c7 -7 13 -7 20 0 6 6 3 10 -10 10 -13 0 -16 -4 -10 -10z"/>
<path d="M236 92 c-2 -4 4 -8 14 -8 10 0 16 4 14 8 -7 10 -21 10 -28 0z"/>
<path d="M430 86 c7 -7 13 -7 20 0 6 6 3 10 -10 10 -13 0 -16 -4 -10 -10z"/>
<path d="M500 86 c7 -7 13 -7 20 0 6 6 3 10 -10 10 -13 0 -16 -4 -10 -10z"/>
<path d="M570 86 c7 -7 13 -7 20 0 6 6 3 10 -10 10 -13 0 -16 -4 -10 -10z"/>
<path d="M740 86 c7 -7 13 -7 20 0 6 6 3 10 -10 10 -13 0 -16 -4 -10 -10z"/>
<path d="M810 86 c7 -7 13 -7 20 0 6 6 3 10 -10 10 -13 0 -16 -4 -10 -10z"/>
<path d="M1235 90 c-3 -6 1 -7 9 -4 18 7 21 14 7 14 -6 0 -13 -4 -16 -10z"/>
<path d="M3977 89 c7 -7 15 -10 18 -7 3 3 -2 9 -12 12 -14 6 -15 5 -6 -5z"/>
<path d="M4050 86 c7 -7 13 -7 20 0 6 6 3 10 -10 10 -13 0 -16 -4 -10 -10z"/>
<path d="M4190 86 c7 -7 13 -7 20 0 6 6 3 10 -10 10 -13 0 -16 -4 -10 -10z"/>
<path d="M4236 92 c-2 -4 4 -8 14 -8 10 0 16 4 14 8 -3 4 -9 8 -14 8 -5 0 -11
-4 -14 -8z"/>
<path d="M4430 86 c7 -7 13 -7 20 0 6 6 3 10 -10 10 -13 0 -16 -4 -10 -10z"/>
<path d="M4500 86 c7 -7 13 -7 20 0 6 6 3 10 -10 10 -13 0 -16 -4 -10 -10z"/>
<path d="M4570 86 c7 -7 13 -7 20 0 6 6 3 10 -10 10 -13 0 -16 -4 -10 -10z"/>
<path d="M4740 86 c7 -7 13 -7 20 0 6 6 3 10 -10 10 -13 0 -16 -4 -10 -10z"/>
<path d="M4810 86 c7 -7 13 -7 20 0 6 6 3 10 -10 10 -13 0 -16 -4 -10 -10z"/>
<path d="M1691 54 c0 -11 3 -14 6 -6 3 7 2 16 -1 19 -3 4 -6 -2 -5 -13z"/>
<path d="M426 42 c-2 -4 4 -8 14 -8 10 0 16 4 14 8 -3 4 -9 8 -14 8 -5 0 -11
-4 -14 -8z"/>
<path d="M595 39 c-11 -16 -1 -19 13 -3 7 8 8 14 3 14 -5 0 -13 -5 -16 -11z"/>
<path d="M666 42 c-2 -4 4 -8 14 -8 10 0 16 4 14 8 -7 10 -21 10 -28 0z"/>
<path d="M806 42 c-2 -4 4 -8 14 -8 10 0 16 4 14 8 -7 10 -21 10 -28 0z"/>
<path d="M880 46 c0 -2 7 -7 16 -10 8 -3 12 -2 9 4 -6 10 -25 14 -25 6z"/>
<path d="M1045 41 c-3 -7 0 -8 9 -5 17 7 22 -11 6 -19 -6 -3 -5 -4 2 -3 16 3
17 28 1 33 -6 2 -14 -1 -18 -6z"/>
<path d="M1115 40 c-2 -4 7 -6 21 -4 35 3 41 12 9 12 -14 0 -27 -4 -30 -8z"/>
<path d="M1190 45 c0 -8 29 -12 39 -5 9 5 4 8 -13 8 -14 0 -26 -2 -26 -3z"/>
<path d="M4426 42 c-2 -4 4 -8 14 -8 10 0 16 4 14 8 -7 10 -21 10 -28 0z"/>
<path d="M4595 39 c-11 -16 -1 -19 13 -3 7 8 8 14 3 14 -5 0 -13 -5 -16 -11z"/>
<path d="M4666 42 c-2 -4 4 -8 14 -8 10 0 16 4 14 8 -7 10 -21 10 -28 0z"/>
<path d="M4806 42 c-2 -4 4 -8 14 -8 10 0 16 4 14 8 -7 10 -21 10 -28 0z"/>
<path d="M4880 46 c0 -2 7 -7 16 -10 8 -3 12 -2 9 4 -6 10 -25 14 -25 6z"/>
<path d="M516 23 c-6 -14 -5 -15 5 -6 7 7 10 15 7 18 -3 3 -9 -2 -12 -12z"/>
<path d="M2491 24 c0 -11 3 -14 6 -6 3 7 2 16 -1 19 -3 4 -6 -2 -5 -13z"/>
<path d="M4516 23 c-6 -14 -5 -15 5 -6 7 7 10 15 7 18 -3 3 -9 -2 -12 -12z"/>
</g>
</svg>
