<svg height="476pt" viewBox="-70 0 476 476.2914" width="476pt" xmlns="http://www.w3.org/2000/svg" xmlns:xlink="http://www.w3.org/1999/xlink"><linearGradient id="a" gradientUnits="userSpaceOnUse" x1="-30.95344" x2="335.43056" y1="435.603404" y2="69.227404"><stop offset="0" stop-color="#41dfd0"/><stop offset="1" stop-color="#ee83ef"/></linearGradient><path d="m5.839844 415.753906 5.480468 10.96875c-9.410156 9.835938-12.582031 24.085938-8.234374 36.984375l2.402343 7.113281c1.082031 3.253907 4.121094 5.453126 7.550781 5.472657h278.398438c3.445312 0 6.503906-2.207031 7.59375-5.472657l2.398438-7.113281c4.351562-12.914062 1.164062-27.179687-8.269532-37.015625l5.476563-10.96875c11.085937-21.988281 5.496093-48.722656-13.46875-64.429687-10.34375-8.550781-23.53125-12.890625-36.929688-12.160157v-23.777343l25.222657-3.199219c22.425781-2.84375 39.546874-21.417969 40.554687-44l-1.601563-99.671875c9.753907-5.210937 15.835938-15.375 15.824219-26.433594 5.070313-4.511719 7.980469-10.972656 8-17.757812v-8c.023438-8.585938-4.550781-16.523438-11.988281-20.804688-7.4375-4.285156-16.597656-4.257812-24.011719.066407-6.109375-3.425782-13.40625-4.035157-20-1.664063v-69.886719c0-8.449218-4.4375-16.273437-11.691406-20.605468-7.25-4.332032-16.246094-4.535157-23.683594-.53125l-79.023437 42.578124c-9-1.304687-18.140625-1.304687-27.136719 0l-79.089844-42.578124c-7.4375-4.003907-16.433593-3.800782-23.683593.53125-7.253907 4.332031-11.691407 12.15625-11.691407 20.605468v148.382813c-3.921875-.042969-7.289062 2.785156-7.921875 6.65625-.632812 3.875 1.660156 7.628906 5.394532 8.832031l2.527343.847656v23.457032l-1.320312.222656c-4.097657.695312-6.980469 4.410156-6.636719 8.550781s3.800781 7.332031 7.957031 7.339844c.417969 0 .835938-.035157 1.25-.105469 1.472657 7.304688 4.382813 14.242188 8.566407 20.40625l-6.808594 5.449219c-2.652344 2.121093-3.675782 5.6875-2.554688 8.894531 1.125 3.207031 4.148438 5.351562 7.546875 5.355469.136719 0 .265625-.058594.398438-.066407-10.351563 15.976563-12.511719 35.917969-5.8125 53.738282l6.621093 17.671875c.378907 1 .890626 1.902343 1.34375 2.855469-14.152343 5.144531-25.425781 16.109374-30.960937 30.117187s-4.804687 29.714844 2.011719 43.144531zm154.175781 35.609375c-17.546875 9.359375-39.359375 2.71875-48.714844-14.832031l-18.820312-35.296875c-7.320313-13.65625-5.039063-30.46875 5.652343-41.679687 3.589844-1.832032 6.835938-4.265626 9.601563-7.199219 17.480469-9.070313 39.007813-2.371094 48.257813 15.015625l18.847656 35.320312c9.300781 17.539063 2.671875 39.296875-14.824219 48.671875zm-57.703125-178.152343h16l6.292969 3.152343c-2.296875 3.984375-3.703125 8.425781-4.109375 13.007813l-10.304688-.9375c-1.777344-5.46875-4.4375-10.613282-7.878906-15.222656zm172.605469 90.402343c13.246093 10.960938 17.148437 29.625 9.410156 44.972657l-8.089844 16.128906c-1.539062 3.078125-.9375 6.796875 1.496094 9.234375l3.417969 3.414062c5.597656 5.554688 7.542968 13.808594 5.023437 21.28125l-.511719 1.648438h-110.296874c19.648437-15.605469 25.367187-43.007813 13.597656-65.167969l-18.824219-35.296875c-10.164063-19.132813-31.164063-29.921875-52.636719-27.046875.882813-4.875.808594-9.871094-.21875-14.714844l-2.925781-13.183594 8.933594.800782c5.1875 11.328125 16.5 18.597656 28.960937 18.597656 12.460938 0 23.777344-7.269531 28.960938-18.597656l51.023437-4.59375v43.113281c-8.988281 5.980469-15.9375 14.558594-19.925781 24.59375l-.347656.894531c-1.59375 4.121094.453125 8.757813 4.578125 10.351563.917969.355469 1.894531.539062 2.878906.535156 3.304687.003906 6.269531-2.023437 7.464844-5.101563l.34375-.890624c3.074219-7.828126 8.714843-14.378907 16-18.582032 11.171875-2.488281 22.867187.324219 31.6875 7.617188zm-138.679688-71.320312c0-8.839844 7.164063-16 16-16 8.835938 0 16 7.160156 16 16 0 8.835937-7.164062 16-16 16-8.835937 0-16-7.164063-16-16zm43.59375-15.929688 6.292969-3.152343h38.113281c2.679688-.019532 5.351563-.230469 8-.640626v12.417969l-48.296875 4.382813c-.40625-4.582032-1.8125-9.023438-4.109375-13.007813zm57.40625-54.320312c-.699219-.523438-1.484375-.925781-2.320312-1.191407l28.410156 4.726563c-1.011719 4.628906-2.839844 9.035156-5.402344 13.015625zm64.800781-66.449219c-3.433593 1.027344-5.761718 4.210938-5.703124 7.792969l1.679687 104.496093c-.828125 14.636719-11.992187 26.589844-26.535156 28.410157l-23.242188 2.933593v-31.496093c4.097657-1.925781 7.949219-4.34375 11.464844-7.199219l7.535156 6.03125c3.449219 2.761719 8.488281 2.203125 11.25-1.246094 2.757813-3.453125 2.199219-8.488281-1.25-11.25l-6.710937-5.367187c4.222656-6.171875 7.152344-13.136719 8.613281-20.472657.367187.046876.730469.066407 1.097656.066407 4.15625-.011719 7.609375-3.203125 7.953125-7.34375.339844-4.140625-2.542968-7.851563-6.640625-8.546875l-1.3125-.222656v-23.457032l2.527344-.847656c3.734375-1.203125 6.027344-4.957031 5.394531-8.832031-.628906-3.871094-3.996094-6.699219-7.921875-6.65625v-13.382813c0-2.359375-1.042969-4.601562-2.847656-6.121094-2.027344-1.722656-3.535156-3.972656-4.359375-6.503906 1.097656-.375 2.164062-.828125 3.199219-1.351562 7.441406 4.230468 16.558593 4.230468 24 0 3.203125 1.816406 6.78125 2.859375 10.457031 3.054687-1.683594 3.617188-4.820312 6.347657-8.632812 7.511719zm-31.832031-44.519531c1.558594 1.65625 3.726563 2.59375 6 2.59375 2.269531 0 4.441407-.9375 6-2.59375 1.484375-1.773438 3.683594-2.800781 6-2.800781 2.316407 0 4.511719 1.027343 6 2.800781 1.558594 1.65625 3.726563 2.59375 6 2.59375 2.269531 0 4.441407-.9375 6-2.59375 2.160157-2.574219 5.707031-3.515625 8.855469-2.34375 3.152344 1.171875 5.222656 4.199219 5.175781 7.5625v8c.023438 3.335937-2.039062 6.332031-5.167969 7.496093-3.125 1.167969-6.648437.253907-8.816406-2.28125-1.519531-1.722656-3.703125-2.707031-6-2.707031s-4.480468.984375-6 2.707031c-1.484375 1.777344-3.683594 2.800782-6 2.800782s-4.511718-1.023438-6-2.800782c-1.554687-1.65625-3.726562-2.59375-6-2.59375-2.269531 0-4.441406.9375-6 2.59375-2.160156 2.5625-5.699218 3.492188-8.84375 2.324219-3.140625-1.171875-5.210937-4.1875-5.171875-7.539062v-8c-.023437-3.339844 2.042969-6.335938 5.167969-7.5 3.125-1.167969 6.648438-.253907 8.816406 2.28125zm-229.96875 82.976562 29.472657 9.824219c4.195312 1.398438 8.730468-.875 10.128906-5.070312 1.394531-4.199219-.875-8.734376-5.074219-10.128907l-34.527344-11.480469v-153.191406c0-2.816406 1.484375-5.421875 3.898438-6.867187 2.417969-1.441407 5.414062-1.507813 7.894531-.171875l75.773438 40.796875c1.613281 3.234375 5.195312 4.984375 8.738281 4.273437 10.359375-2.097656 21.03125-2.097656 31.390625 0 3.542968.710938 7.125-1.039062 8.738281-4.273437l75.773437-40.796875c2.480469-1.335938 5.476563-1.269532 7.894532.171875 2.417968 1.445312 3.898437 4.050781 3.898437 6.867187v68.289063c-2.730469.023437-5.4375.523437-8 1.46875v-60.238281c0-2.949219-1.625-5.664063-4.226562-7.054688-2.601563-1.390625-5.757813-1.238281-8.214844.398438l-48 32c-2.222656 1.484374-3.558594 3.980468-3.558594 6.65625 0 2.675781 1.335938 5.171874 3.558594 6.65625l47.882813 31.917968c-2.230469 3.679688-3.421876 7.894532-3.441407 12.195313v8c.050781 10.308593 6.675781 19.433593 16.464844 22.671875.960937 5.765625 3.578125 11.132812 7.535156 15.4375v14.792968l-34.527343 11.511719c-4.199219 1.398438-6.46875 5.929688-5.074219 10.128907 1.398437 4.195312 5.933593 6.46875 10.128906 5.070312l29.472656-9.855469v15.464844l-30.679687-5.113281c-4.300782-.613282-8.304688 2.316406-9.019532 6.601562-.71875 4.28125 2.113282 8.355469 6.378907 9.175782l1.464843.246093c-2.464843-.097656-4.832031.964844-6.398437 2.867188-2.765625 3.449219-2.207031 8.484375 1.246094 11.246093l19.566406 15.65625c-6.632813 4.570313-14.5 7.015626-22.558594 7.015626h-40c-1.242187 0-2.464843.289062-3.574219.847656l-12.882812 6.402344c-9.605469-5.601563-21.480469-5.601563-31.085938 0l-12.878906-6.402344c-1.109375-.558594-2.335937-.847656-3.578125-.847656h-37.824219c-6.621093-3.0625-13.804687-4.710938-21.09375-4.847657-1.257812-.65625-2.476562-1.378906-3.65625-2.160156l19.574219-15.664063c3.453125-2.761718 4.011719-7.796874 1.25-11.246093-1.550781-1.894531-3.898437-2.957031-6.347656-2.875l1.417969-.238281c4.265625-.820313 7.097656-4.894532 6.378906-9.175782-.714844-4.285156-4.71875-7.214844-9.019531-6.601562l-30.679688 5.113281zm200-145.597656v34.109375l-25.601562-17.054688zm-193.726562 190.175781c-2.511719-4.011718-4.296875-8.429687-5.273438-13.058594l28.320313-4.71875c-.835938.265626-1.621094.667969-2.320313 1.191407zm1.34375 35.511719c2.765625-3.675781 7.09375-5.839844 11.695312-5.847656h.917969c17.179688-.082031 32.074219 11.867187 35.722656 28.65625l5.464844 24.582031c1.03125 4.699219.503906 9.609375-1.503906 13.984375-.476563 1.03125-1.03125 2.023437-1.65625 2.96875-3.640625 5.90625-10.335938 9.21875-17.242188 8.527344-.347656-.046875-.703125-.074219-1.054687-.074219h-11.160157c-.285156 0-.574218.019531-.855468.050781-8.792969.773438-16.964844-4.605469-19.738282-12.984375l-6.621093-17.679687c-5.359375-14.164063-3.082031-30.089844 6.03125-42.183594zm-18.296875 89.480469c4.648437-3.84375 10.171875-6.488282 16.078125-7.707032 6.769531 5.238282 15.25 7.75 23.777343 7.042969h7.480469c-6.671875 14.664063-6.128906 31.605469 1.472657 45.8125l18.824218 35.296875c3.34375 6.28125 7.945313 11.804688 13.519532 16.226563h-91.894532l-.546875-1.648438c-2.523437-7.472656-.574219-15.726562 5.023438-21.28125l3.417969-3.414062c2.433593-2.4375 3.035156-6.15625 1.496093-9.234375l-8.054687-16.121094c-7.742188-15.347656-3.835938-34.011719 9.40625-44.972656zm87.105468-131.25c12.402344 6.191406 27.464844 2.476562 35.574219-8.769532 8.105469 11.25 23.164063 14.972657 35.578125 8.800782 2.578125-1.261719 4.28125-3.8125 4.460938-6.679688.179687-2.867187-1.191406-5.613281-3.589844-7.191406-2.402344-1.574219-5.464844-1.742188-8.023438-.441406-5.535156 2.753906-12.253906.96875-15.691406-4.167969l-3.40625-5.101563c1.316406-.925781 2.488282-2.039062 3.472656-3.3125l8-10.65625c3.636719-4.847656 4.21875-11.335937 1.511719-16.753906-2.710937-5.421875-8.25-8.847656-14.3125-8.847656h-16c-6.058593 0-11.601562 3.425781-14.3125 8.847656-2.707031 5.417969-2.125 11.90625 1.511719 16.753906l8 10.65625c.984375 1.273438 2.15625 2.386719 3.472656 3.3125l-3.40625 5.101563c-3.4375 5.136719-10.15625 6.921875-15.6875 4.167969-2.5625-1.300782-5.625-1.132813-8.027344.441406-2.398437 1.578125-3.769531 4.324219-3.589843 7.191406.179687 2.867188 1.882812 5.417969 4.464843 6.679688zm27.574219-47.160156h16l-8 10.664062zm-32-40c0 8.835937-7.164062 16-16 16-8.835937 0-16-7.164063-16-16 0-8.835938 7.164063-16 16-16 8.835938 0 16 7.164062 16 16zm80 0c0-8.835938 7.164063-16 16-16 8.835938 0 16 7.164062 16 16 0 8.835937-7.164062 16-16 16-8.835937 0-16-7.164063-16-16zm-80-79.6875c0-2.675782-1.335937-5.171876-3.558593-6.65625l-48-32c-2.457032-1.636719-5.613282-1.789063-8.214844-.398438-2.601563 1.390625-4.226563 4.105469-4.226563 7.054688v64c0 2.949218 1.625 5.664062 4.226563 7.054687 2.601562 1.390625 5.757812 1.238281 8.214844-.398437l48-32c2.222656-1.484376 3.558593-3.980469 3.558593-6.65625zm-48 17.054687v-34.109375l25.601563 17.054688zm68.425781 304.914063-16-8 7.152344-14.320313 16 8zm7.152344 9.679687 16 8-7.152344 14.320313-16-8zm0 0" fill="url(#a)"/></svg>